<svg width="110" height="112" viewBox="0 0 110 112" fill="none" xmlns="http://www.w3.org/2000/svg">
<path d="M55 0L63.4985 18.7656L79.2975 5.54574L78.8123 26.1403L98.7826 21.0846L89.4098 39.4291L109.596 43.5388L93.192 56L109.596 68.4612L89.4098 72.5709L98.7826 90.9154L78.8123 85.8597L79.2975 106.454L63.4985 93.2345L55 112L46.5015 93.2345L30.7025 106.454L31.1877 85.8597L11.2174 90.9154L20.5902 72.5709L0.404037 68.4612L16.808 56L0.404037 43.5388L20.5902 39.4291L11.2174 21.0846L31.1877 26.1403L30.7025 5.54574L46.5015 18.7656L55 0Z" fill="white"/>
</svg>
