<svg width="222" height="218" viewBox="0 0 222 218" fill="none" xmlns="http://www.w3.org/2000/svg">
<path d="M96.8248 51.3723C99.0529 28.9706 100.167 17.7697 101.305 15.7326C105.584 8.07423 116.604 8.07423 120.882 15.7326C122.021 17.7697 123.135 28.9706 125.363 51.3723C125.807 55.8392 126.029 58.0726 126.633 59.5652C128.8 64.922 134.682 67.7549 140.221 66.1091C141.765 65.6505 143.649 64.4316 147.419 61.9939C166.322 49.7687 175.774 43.6561 178.077 43.2758C186.732 41.8463 193.603 50.4616 190.283 58.5818C189.4 60.7419 181.337 68.5965 165.212 84.3059C161.997 87.4383 160.389 89.0045 159.598 90.4071C156.761 95.441 158.214 101.807 162.955 105.111C164.275 106.032 166.403 106.745 170.659 108.172C192.004 115.33 202.676 118.908 204.409 120.471C210.923 126.347 208.471 137.09 200.052 139.557C197.813 140.214 186.645 138.808 164.309 135.995C159.855 135.434 157.628 135.154 156.039 135.41C150.334 136.331 146.263 141.435 146.635 147.202C146.739 148.808 147.508 150.917 149.046 155.134C156.758 176.284 160.614 186.86 160.473 189.189C159.94 197.945 150.012 202.726 142.834 197.683C140.925 196.341 135.061 186.733 123.334 167.517C120.996 163.685 119.826 161.769 118.635 160.686C114.358 156.8 107.829 156.8 103.553 160.686C102.361 161.769 101.192 163.685 98.8536 167.517C87.1264 186.733 81.2627 196.341 79.3534 197.683C72.1754 202.726 62.2472 197.945 61.715 189.189C61.5734 186.86 65.4295 176.284 73.1417 155.134C74.6796 150.917 75.4485 148.808 75.5521 147.202C75.9242 141.435 71.8532 136.331 66.1486 135.41C64.5592 135.154 62.3323 135.434 57.8785 135.995C35.5426 138.808 24.3746 140.214 22.1353 139.557C13.7168 137.09 11.2648 126.347 17.779 120.471C19.5118 118.908 30.1839 115.33 51.5282 108.172C55.7842 106.745 57.9122 106.032 59.233 105.111C63.9734 101.807 65.4263 95.441 62.5891 90.4071C61.7986 89.0045 60.1909 87.4383 56.9756 84.3059C40.8504 68.5965 32.7878 60.7419 31.9048 58.5818C28.5851 50.4616 35.4556 41.8463 44.1109 43.2758C46.4133 43.6561 55.8651 49.7687 74.7688 61.9939C78.5381 64.4316 80.4228 65.6505 81.9661 66.1091C87.5052 67.7549 93.3879 64.922 95.5546 59.5652C96.1583 58.0726 96.3805 55.8392 96.8248 51.3723Z" fill="white"/>
</svg>
